<svg id="visual" viewBox="0 0 2100 1200" width="2100" height="1200" xmlns="http://www.w3.org/2000/svg" xmlns:xlink="http://www.w3.org/1999/xlink" version="1.1"><path d="M0 661L11.3 636.7C22.7 612.3 45.3 563.7 67.8 541C90.3 518.3 112.7 521.7 135.2 520C157.7 518.3 180.3 511.7 203 533.7C225.7 555.7 248.3 606.3 271 603.8C293.7 601.3 316.3 545.7 338.8 535.3C361.3 525 383.7 560 406.2 592.5C428.7 625 451.3 655 474 667.5C496.7 680 519.3 675 542 652C564.7 629 587.3 588 609.8 581.3C632.3 574.7 654.7 602.3 677.2 598.3C699.7 594.3 722.3 558.7 745 535.7C767.7 512.7 790.3 502.3 813 512.8C835.7 523.3 858.3 554.7 880.8 554.7C903.3 554.7 925.7 523.3 948.2 527.3C970.7 531.3 993.3 570.7 1016 571.8C1038.7 573 1061.3 536 1084 553.5C1106.7 571 1129.3 643 1151.8 656.2C1174.3 669.3 1196.7 623.7 1219.2 608.2C1241.7 592.7 1264.3 607.3 1287 615.8C1309.7 624.3 1332.3 626.7 1355 614.7C1377.7 602.7 1400.3 576.3 1422.8 571.2C1445.3 566 1467.7 582 1490.2 584.5C1512.7 587 1535.3 576 1558 584.8C1580.7 593.7 1603.3 622.3 1626 616.7C1648.7 611 1671.3 571 1693.8 566.5C1716.3 562 1738.7 593 1761.2 619.5C1783.7 646 1806.3 668 1829 679.7C1851.7 691.3 1874.3 692.7 1897 674.8C1919.7 657 1942.3 620 1964.8 595.3C1987.3 570.7 2009.7 558.3 2032.2 541.5C2054.7 524.7 2077.3 503.3 2088.7 492.7L2100 482L2100 0L2088.7 0C2077.3 0 2054.7 0 2032.2 0C2009.7 0 1987.3 0 1964.8 0C1942.3 0 1919.7 0 1897 0C1874.3 0 1851.7 0 1829 0C1806.3 0 1783.7 0 1761.2 0C1738.7 0 1716.3 0 1693.8 0C1671.3 0 1648.7 0 1626 0C1603.3 0 1580.7 0 1558 0C1535.3 0 1512.7 0 1490.2 0C1467.7 0 1445.3 0 1422.8 0C1400.3 0 1377.7 0 1355 0C1332.3 0 1309.7 0 1287 0C1264.3 0 1241.7 0 1219.2 0C1196.7 0 1174.3 0 1151.8 0C1129.3 0 1106.7 0 1084 0C1061.3 0 1038.7 0 1016 0C993.3 0 970.7 0 948.2 0C925.7 0 903.3 0 880.8 0C858.3 0 835.7 0 813 0C790.3 0 767.7 0 745 0C722.3 0 699.7 0 677.2 0C654.7 0 632.3 0 609.8 0C587.3 0 564.7 0 542 0C519.3 0 496.7 0 474 0C451.3 0 428.7 0 406.2 0C383.7 0 361.3 0 338.8 0C316.3 0 293.7 0 271 0C248.3 0 225.7 0 203 0C180.3 0 157.7 0 135.2 0C112.7 0 90.3 0 67.8 0C45.3 0 22.7 0 11.3 0L0 0Z" fill="#000000" stroke-linecap="round" stroke-linejoin="miter"></path></svg>